<svg id="Layer_1" data-name="Layer 1" xmlns="http://www.w3.org/2000/svg" viewBox="0 0 712.65 151.05"><defs><style>.cls-1{fill:#1f2937;}.cls-2{fill:#1f55ad;}</style></defs><path class="cls-1" d="M0,153.75,7.2,133.5a16.54,16.54,0,0,0,8.85,2.4,7.58,7.58,0,0,0,6.15-2.7q2.25-2.7,2.25-7.95v-79H53v79.2q0,15-8.78,23.77T19.8,158Q7.35,158,0,153.75ZM26.1,32.85a14,14,0,0,1-4.8-10.8,14,14,0,0,1,4.8-10.8Q30.9,6.9,38.7,6.9T51.3,11A13.32,13.32,0,0,1,56.1,21.6a14.52,14.52,0,0,1-4.8,11.17q-4.8,4.42-12.6,4.43T26.1,32.85Z" transform="translate(0 -6.9)"/><path class="cls-1" d="M147.9,94.05H88.8a16.52,16.52,0,0,0,7,9.67q5.17,3.38,13,3.38a28.06,28.06,0,0,0,10.12-1.65,29.89,29.89,0,0,0,8.63-5.4l15,15.6q-11.85,13.2-34.65,13.2-14.25,0-25-5.4A39.74,39.74,0,0,1,60.15,86.7,40.09,40.09,0,0,1,81.9,50.25a48.28,48.28,0,0,1,22.95-5.4,48,48,0,0,1,22.05,5,38.28,38.28,0,0,1,15.67,14.55q5.77,9.52,5.78,22.58Q148.35,87.3,147.9,94.05ZM94,68.85a16.93,16.93,0,0,0-5.62,10.2h33.3A16.94,16.94,0,0,0,116,68.85a16.45,16.45,0,0,0-11-3.75A16.48,16.48,0,0,0,94,68.85Z" transform="translate(0 -6.9)"/><path class="cls-1" d="M194,47.62a43,43,0,0,1,16-2.77V70.5a58.27,58.27,0,0,0-6.45-.45q-9.15,0-14.33,5t-5.17,15.15V127.5h-28.5V46.2H182.7V56A26.6,26.6,0,0,1,194,47.62Z" transform="translate(0 -6.9)"/><path class="cls-1" d="M297.6,94.05H238.5a16.52,16.52,0,0,0,7,9.67q5.17,3.38,13,3.38a28.06,28.06,0,0,0,10.12-1.65,29.89,29.89,0,0,0,8.63-5.4l15,15.6q-11.85,13.2-34.65,13.2-14.25,0-25.05-5.4A39.74,39.74,0,0,1,209.85,86.7,40.09,40.09,0,0,1,231.6,50.25a51.21,51.21,0,0,1,45-.38,38.28,38.28,0,0,1,15.67,14.55Q298,73.94,298.05,87,298.05,87.3,297.6,94.05Zm-53.93-25.2a16.93,16.93,0,0,0-5.62,10.2h33.3a16.94,16.94,0,0,0-5.63-10.2,18.08,18.08,0,0,0-22.05,0Z" transform="translate(0 -6.9)"/><path class="cls-1" d="M435.07,53.85Q444,62.85,444,81v46.5H415.5V85.65q0-8.55-3.23-12.6a10.93,10.93,0,0,0-9.07-4,13,13,0,0,0-10.35,4.5Q389,78,389,87.15V127.5h-28.5V85.65q0-16.65-12.3-16.65a13.19,13.19,0,0,0-10.5,4.5q-3.9,4.5-3.9,13.65V127.5h-28.5V46.2H332.4v8.55a28.57,28.57,0,0,1,10.72-7.43,36.44,36.44,0,0,1,13.58-2.47A35.77,35.77,0,0,1,372,48,26,26,0,0,1,383,57.6a31.52,31.52,0,0,1,12.15-9.45,38.73,38.73,0,0,1,16-3.3Q426.15,44.85,435.07,53.85Z" transform="translate(0 -6.9)"/><path class="cls-1" d="M457.65,32.85a14,14,0,0,1-4.8-10.8,14,14,0,0,1,4.8-10.8q4.8-4.35,12.6-4.35T482.85,11a13.32,13.32,0,0,1,4.8,10.58,14.52,14.52,0,0,1-4.8,11.17q-4.8,4.42-12.6,4.43T457.65,32.85ZM456,46.2h28.5v81.3H456Z" transform="translate(0 -6.9)"/><path class="cls-1" d="M562.5,54.07q10.65,9.23,10.65,28.28V127.5H546.6V117q-6.15,11.85-24,11.85a37.56,37.56,0,0,1-16.35-3.3,24.26,24.26,0,0,1-10.43-8.93,23.62,23.62,0,0,1-3.52-12.82q0-11.55,8.85-17.93t27.3-6.37h16.2q-.75-12.9-17.25-12.9a39.57,39.57,0,0,0-11.85,1.87,31.78,31.78,0,0,0-10.2,5.18l-9.6-19.35a53.14,53.14,0,0,1,16.42-7,78.13,78.13,0,0,1,19.43-2.47Q551.85,44.85,562.5,54.07Zm-23.25,54.38a13.36,13.36,0,0,0,5.4-7V94.35h-12.3q-12.45,0-12.45,8.25a7.26,7.26,0,0,0,2.85,6,12.27,12.27,0,0,0,7.8,2.25A15.79,15.79,0,0,0,539.25,108.45Z" transform="translate(0 -6.9)"/><path class="cls-1" d="M662.47,53.85q9.22,9,9.23,27.15v46.5H643.2V85.65Q643.2,69,629.85,69q-7.36,0-11.78,4.8t-4.42,14.4v39.3h-28.5V16.2h28.5V53.7a31.08,31.08,0,0,1,11-6.6,39.84,39.84,0,0,1,13.5-2.25Q653.24,44.85,662.47,53.85Z" transform="translate(0 -6.9)"/><path class="cls-2" d="M683.4,124.05a16.21,16.21,0,0,1-5-12.15,16,16,0,0,1,4.88-12.15,18.5,18.5,0,0,1,24.53,0,16.19,16.19,0,0,1,4.8,12.15,16.34,16.34,0,0,1-4.88,12.15,17.87,17.87,0,0,1-24.37,0Z" transform="translate(0 -6.9)"/></svg>